<svg width="21" height="16" viewBox="0 0 21 16" fill="none" xmlns="http://www.w3.org/2000/svg">
<path d="M1.11633 0.00508181C0.769129 0.0582194 0.458212 0.241111 0.251983 0.513522C0.0457531 0.785933 -0.0388962 1.12555 0.0166567 1.45766C0.0722096 1.78977 0.263414 2.08717 0.548207 2.28443C0.833001 2.48169 1.18805 2.56266 1.53526 2.50952H5.46268L5.69833 3.13564L6.77182 6.26619L7.84532 9.39674C7.95005 9.72232 8.39516 10.0229 8.73553 10.0229H17.8995C18.2661 10.0229 18.685 9.72232 18.7897 9.39674L20.9105 3.13564C21.0153 2.81006 20.8582 2.50952 20.4916 2.50952H8.86645L7.8715 0.706326C7.76553 0.499357 7.6019 0.324375 7.39864 0.200648C7.19537 0.0769205 6.96035 0.00924798 6.71946 0.00508181L1.48289 0.00508181C1.40451 -0.00169394 1.32564 -0.00169394 1.24725 0.00508181C1.19493 0.00207377 1.14247 0.00207377 1.09015 0.00508181L1.11633 0.00508181ZM9.3901 12.5273C8.65699 12.5273 8.08096 13.0783 8.08096 13.7795C8.08096 14.4808 8.65699 15.0317 9.3901 15.0317C10.1232 15.0317 10.6992 14.4808 10.6992 13.7795C10.6992 13.0783 10.1232 12.5273 9.3901 12.5273ZM17.2449 12.5273C16.5118 12.5273 15.9358 13.0783 15.9358 13.7795C15.9358 14.4808 16.5118 15.0317 17.2449 15.0317C17.9781 15.0317 18.5541 14.4808 18.5541 13.7795C18.5541 13.0783 17.9781 12.5273 17.2449 12.5273Z" fill="#4B626C"/>
</svg>
